<?xml version="1.0" encoding="UTF-8" standalone="no"?>
<!-- Created with Inkscape (http://www.inkscape.org/) -->

<svg
   width="172"
   height="48"
   viewBox="0 0 441.43079 123.19"
   version="1.1"
   id="svg5"
   inkscape:version="1.1.2 (0a00cf5339, 2022-02-04)"
   sodipodi:docname="logo200black.svg"
   inkscape:export-filename="/home/holydiver/Documents/FIE/Vue/Oleg/src/assets/logo200black.png"
   inkscape:export-xdpi="96"
   inkscape:export-ydpi="96"
   xmlns:inkscape="http://www.inkscape.org/namespaces/inkscape"
   xmlns:sodipodi="http://sodipodi.sourceforge.net/DTD/sodipodi-0.dtd"
   xmlns="http://www.w3.org/2000/svg"
   xmlns:svg="http://www.w3.org/2000/svg">
  <sodipodi:namedview
     id="namedview7"
     pagecolor="#ffffff"
     bordercolor="#cccccc"
     borderopacity="1"
     inkscape:pageshadow="0"
     inkscape:pageopacity="1"
     inkscape:pagecheckerboard="0"
     inkscape:document-units="mm"
     showgrid="false"
     units="px"
     height="200px"
     scale-x="9.7"
     inkscape:zoom="1.6748036"
     inkscape:cx="105.68403"
     inkscape:cy="85.681688"
     inkscape:window-width="1292"
     inkscape:window-height="704"
     inkscape:window-x="0"
     inkscape:window-y="0"
     inkscape:window-maximized="1"
     inkscape:current-layer="layer1"
     width="201px" />
  <defs
     id="defs2" />
  <g
     inkscape:label="Layer 1"
     inkscape:groupmode="layer"
     id="layer1">
    <g
       id="g90"
       transform="matrix(0.97977099,0,0,1.0210896,0.3255041,-2.5508211)"
       style="stroke-width:0.999783">
      <g
         transform="matrix(0.03527778,0,0,-0.03527778,5.0965635,116.73788)"
         fill="#000000"
         stroke="none"
         id="g92"
         style="stroke-width:1.01005">
        <path
           d="m 1890,2899 c -14,-6 -35,-22 -46,-37 -20,-24 -28,-27 -80,-25 -33,1 -129,14 -214,29 -199,35 -394,40 -453,10 -100,-49 -191,-187 -191,-290 -1,-50 3,-61 24,-78 35,-29 141,-21 230,16 121,52 129,53 237,27 204,-48 240,-54 368,-55 124,-1 133,0 188,27 97,48 138,125 141,265 1,77 -1,85 -23,103 -18,15 -38,19 -90,18 -36,0 -77,-5 -91,-10 z"
           id="path88"
           style="stroke-width:0.999783" />
        <path
           d="M 1135,2259 C 891,2230 740,2156 587,1991 512,1910 478,1859 425,1748 324,1538 290,1285 325,990 360,692 442,533 664,339 768,248 859,199 980,171 c 217,-52 851,-55 1043,-5 34,9 94,31 134,49 288,133 461,370 519,711 23,134 23,414 0,548 -48,286 -179,500 -390,640 -110,73 -200,104 -381,132 -120,19 -647,28 -770,13 z m 481,-439 c 180,-14 300,-36 361,-66 97,-47 181,-166 225,-319 33,-114 33,-343 0,-458 -42,-147 -119,-268 -208,-324 -82,-53 -185,-67 -489,-68 -290,0 -361,10 -474,66 -157,79 -263,299 -264,549 0,192 53,337 170,461 75,79 189,143 283,158 78,12 245,13 396,1 z"
           id="path90"
           style="stroke-width:0.999783" />
      </g>
      <g
         aria-label="Oleg Rõbnikov
Web Development"
         id="text36903"
         style="font-weight:600;font-size:47.9072px;line-height:1.25;font-family:'Dancing Script';-inkscape-font-specification:'Dancing Script Semi-Bold';white-space:pre;inline-size:329.492;stroke-width:2.5659">
        <path
           d="m 124.71268,51.821765 q -2.77861,0 -5.07816,-1.485123 -2.29955,-1.437216 -3.64095,-4.120019 -1.3414,-2.682803 -1.3414,-6.419565 0,-3.688854 1.14977,-7.425616 1.14978,-3.784668 3.16188,-7.18608 2.0121,-3.449318 4.6949,-6.132121 2.68281,-2.730711 5.70096,-4.263741 3.06606,-1.580938 6.27584,-1.580938 0.47908,0 1.38931,0.191629 0.95815,0.191629 1.86838,1.149773 -0.28744,-0.04791 -0.6707,-0.04791 -0.33535,-0.04791 -0.7186,-0.04791 -2.49118,0 -5.03026,1.580937 -2.53908,1.533031 -4.83863,4.167927 -2.29954,2.634896 -4.12002,5.9884 -1.77256,3.305596 -2.82652,6.898636 -1.05396,3.59304 -1.05396,6.994452 0,2.491174 0.6707,4.646998 0.6707,2.155824 2.15582,3.449318 1.48513,1.341402 3.92839,1.341402 2.6349,0 4.93445,-1.580938 2.29954,-1.580937 4.16792,-4.215833 1.86838,-2.682803 3.20979,-5.940493 1.3414,-3.305597 2.06,-6.754915 0.71861,-3.497226 0.71861,-6.659101 0,-1.389309 -0.19163,-2.970246 -0.19162,-1.628845 -0.6707,-2.778618 -0.43116,-1.149773 -1.29349,-1.149773 -0.81442,0 -1.77257,1.053959 -0.95814,1.006051 -1.86838,2.586988 -0.91024,1.580938 -1.62884,3.353504 -0.6707,1.72466 -0.95815,3.113968 -1.62884,-0.33535 -2.34745,-1.053958 -0.6707,-0.718608 -0.6707,-1.724659 0,-1.293495 0.91024,-2.874432 0.91023,-1.580938 2.34745,-3.018154 1.48512,-1.485123 3.06606,-2.443267 1.62884,-0.958144 3.01815,-0.958144 1.43722,0 2.29955,1.053958 0.91024,1.006052 1.38931,2.634896 0.47907,1.628845 0.6707,3.497226 0.19163,1.820474 0.19163,3.401411 0,4.886535 -1.19768,8.958647 -1.19768,4.024204 -3.25769,7.138172 -2.0121,3.113968 -4.55119,5.269792 -2.49117,2.155824 -5.17397,3.25769 -2.6349,1.101865 -5.07817,1.101865 z"
           style="font-weight:bold;-inkscape-font-specification:'Dancing Script Bold'"
           id="path35153" />
        <path
           d="m 148.61832,49.091055 q -2.25164,0 -3.16188,-1.485123 -0.86233,-1.53303 -0.86233,-3.59304 0,-2.347453 0.86233,-5.509328 0.86233,-3.161875 2.25164,-6.611194 1.43722,-3.497225 3.11397,-6.802822 1.72466,-3.353504 3.44932,-6.036307 1.72466,-2.682803 3.16187,-4.263741 1.48513,-1.628845 2.39536,-1.628845 0.6228,0 1.05396,0.670701 0.43117,0.622794 0.6707,1.53303 0.28744,0.86233 0.28744,1.628845 0,1.293495 -0.6707,3.401411 -0.62279,2.06001 -1.82047,4.551184 -1.14977,2.491175 -2.77862,5.126071 -1.58093,2.586989 -3.54513,4.934441 -1.91629,2.347453 -4.12002,4.072112 -0.19163,1.19768 -0.38326,2.39536 -0.14372,1.149773 -0.14372,2.107917 0,1.724659 0.57489,2.539082 0.57488,0.766515 1.48512,0.766515 1.19768,0 2.44327,-1.101866 1.29349,-1.149772 2.44327,-2.874432 1.19768,-1.772566 2.06001,-3.640947 l 1.14977,0.622794 q -2.06001,4.263741 -4.59909,6.754915 -2.53908,2.443267 -5.3177,2.443267 z m 1.14977,-12.982851 q 1.62885,-1.772566 3.06606,-3.832576 1.48512,-2.107917 2.6828,-4.263741 1.24559,-2.155824 2.15583,-4.167926 0.91024,-2.012103 1.38931,-3.59304 0.52698,-1.628845 0.57488,-2.586989 0,-0.04791 0,-0.04791 0,-0.04791 0,-0.09582 -0.38325,0 -1.24558,1.101866 -0.81443,1.053958 -1.9642,2.922339 -1.14977,1.868381 -2.39536,4.263741 -1.19768,2.39536 -2.34745,5.078163 -1.10187,2.634896 -1.91629,5.221885 z"
           style="font-weight:bold;-inkscape-font-specification:'Dancing Script Bold'"
           id="path35155" />
        <path
           d="m 161.79275,49.761756 q -3.06606,0 -4.74282,-1.676752 -1.62884,-1.628845 -1.62884,-4.120019 0,-2.107917 1.05396,-4.45537 1.10186,-2.39536 2.92234,-4.455369 1.82047,-2.107917 4.0242,-3.401412 2.20373,-1.293494 4.40746,-1.293494 1.24559,0 2.34746,0.670701 1.14977,0.622793 1.14977,2.539081 0,1.820474 -1.05396,3.401412 -1.05396,1.580937 -2.82652,2.826524 -1.77257,1.245588 -3.92839,2.06001 -2.10792,0.766515 -4.26374,1.006051 -0.0479,0.191629 -0.0958,0.431165 0,0.191629 0,0.670701 0,0.239536 0.0479,0.862329 0.0958,0.574887 0.43116,1.245588 0.33535,0.6707 1.10187,1.149772 0.76651,0.479072 2.10792,0.479072 2.0121,0 4.0242,-1.101865 2.06001,-1.149773 3.83258,-3.018154 1.82047,-1.868381 3.01815,-4.167926 l 0.95814,0.766515 q -1.29349,2.874432 -3.3535,5.030256 -2.0121,2.155824 -4.50328,3.353504 -2.44326,1.19768 -5.03025,1.19768 z m -2.01211,-8.671203 q 1.24559,-0.143722 2.77862,-0.86233 1.53303,-0.718608 2.92234,-1.820473 1.43722,-1.101866 2.34745,-2.39536 0.91024,-1.341402 0.91024,-2.682804 0,-0.526979 -0.19163,-0.718608 -0.19163,-0.191628 -0.62279,-0.191628 -1.10187,0 -2.29955,0.814422 -1.19768,0.766515 -2.34745,2.06001 -1.14977,1.245587 -2.06001,2.778617 -0.91024,1.533031 -1.43722,3.018154 z"
           style="font-weight:bold;-inkscape-font-specification:'Dancing Script Bold'"
           id="path35157" />
        <path
           d="m 174.96721,61.067855 q -1.19768,0 -2.25164,-0.718608 -1.00605,-0.718608 -1.00605,-2.347453 0,-1.53303 0.86233,-2.778617 0.91023,-1.19768 2.34745,-2.251639 1.48512,-1.006051 3.16187,-1.86838 1.67676,-0.86233 3.25769,-1.628845 0.52698,-1.293495 1.00605,-2.778618 0.47908,-1.485123 0.91024,-3.209782 -1.67675,2.107917 -3.54513,3.497225 -1.82047,1.389309 -3.73676,1.389309 -1.91629,0 -3.06606,-1.341401 -1.10187,-1.341402 -1.10187,-3.545133 0,-2.539082 1.24559,-4.742813 1.29349,-2.251638 3.30559,-3.976298 2.01211,-1.772566 4.31165,-2.73071 2.29955,-1.006051 4.40747,-1.006051 1.53303,0 2.29954,0.574886 0.76652,0.526979 0.76652,1.245587 0,0.574887 -0.33535,0.910237 -0.33535,0.335351 -0.43117,0.383258 -0.47907,-0.526979 -1.00605,-0.670701 -0.47907,-0.191629 -1.14977,-0.191629 -1.86838,0 -3.59304,1.053959 -1.72466,1.053958 -3.06606,2.73071 -1.2935,1.628845 -2.06001,3.401411 -0.76652,1.772567 -0.76652,3.209783 0,0.958144 0.43117,1.485123 0.43116,0.479072 1.05395,0.479072 1.34141,0 3.25769,-1.724659 1.91629,-1.772567 3.68886,-4.263741 0.0958,-0.383258 0.14372,-0.670701 0.0958,-0.33535 0.14372,-0.622794 0.47907,-1.916288 1.14977,-2.826524 0.67071,-0.910237 1.86839,-0.910237 0.23953,0 0.57488,0.04791 0.38326,0.04791 0.81442,0.143722 0,0.862329 -0.47907,2.826524 -0.47907,1.964196 -1.29349,4.599092 -0.81442,2.586988 -1.82048,5.317699 1.48513,-0.622794 3.01816,-1.724659 1.53303,-1.149773 2.82652,-2.730711 1.2935,-1.628845 1.9642,-3.59304 l 0.86233,0.86233 q -0.76652,2.203731 -2.39536,4.024205 -1.58094,1.820473 -3.44932,3.161875 -1.86838,1.293494 -3.44932,2.012102 -1.29349,3.161875 -2.82652,5.748864 -1.48513,2.634896 -3.20979,4.167926 -1.67675,1.580938 -3.64094,1.580938 z m -0.19163,-2.203731 q 0.86233,0 2.34745,-1.628845 1.53303,-1.628845 3.3056,-5.509328 -1.77257,0.86233 -3.25769,1.772566 -1.48513,0.910237 -2.39536,1.916288 -0.91024,1.006052 -0.91024,2.107917 0,0.622794 0.23954,0.958144 0.28744,0.383258 0.6707,0.383258 z"
           style="font-weight:bold;-inkscape-font-specification:'Dancing Script Bold'"
           id="path35159" />
        <path
           d="m 228.52737,53.45061 q -1.14977,0 -2.63489,-1.245587 -1.48513,-1.245587 -3.11397,-3.257689 -1.58094,-2.012103 -3.16188,-4.407463 -1.53303,-2.443267 -2.92234,-4.886534 -1.38931,-2.443267 -2.34745,-4.407463 -1.29349,4.407463 -2.49117,8.719111 -1.14978,4.263741 -2.20373,7.904688 -1.38931,0 -2.6349,-0.766515 -1.19768,-0.766516 -1.19768,-2.012103 0,-0.526979 0.23954,-1.245587 0.23953,-0.718608 0.43116,-1.389309 1.38931,-4.167926 2.49117,-7.425616 1.10187,-3.305597 2.06001,-6.036307 1.00606,-2.778618 2.01211,-5.461421 1.05395,-2.73071 2.29954,-5.700957 1.24559,-2.970246 2.87443,-6.707008 -1.86838,0.383258 -3.30559,1.006052 -1.38931,0.622793 -2.29955,1.101865 -0.86233,0.479072 -1.19768,0.479072 -0.23953,0 -0.71861,-0.287443 -0.47907,-0.33535 -0.86233,-0.766515 -0.33535,-0.479072 -0.33535,-0.814423 1.34141,-0.526979 3.11397,-1.149772 1.82048,-0.622794 3.9763,-1.053959 2.15582,-0.479072 4.45537,-0.479072 2.15582,0 4.45537,0.526979 2.29954,0.479072 4.26374,1.580938 1.96419,1.101866 3.16187,2.874432 1.19768,1.772566 1.19768,4.263741 0,2.251638 -1.00605,3.92839 -1.00605,1.628845 -2.6828,2.778618 -1.67675,1.149773 -3.68885,1.868381 -2.01211,0.718608 -4.07212,1.149772 -2.06001,0.383258 -3.83257,0.52698 -1.72466,0.143721 -2.87443,0.191628 1.53303,2.443268 3.01815,4.742813 1.48512,2.299546 3.16187,4.599091 1.72466,2.251639 3.9763,4.551184 2.25164,2.251639 5.3177,4.599092 -0.19163,0.958143 -1.19768,1.53303 -0.95814,0.574886 -1.72466,0.574886 z M 215.44871,31.413298 q 2.6828,-0.191628 5.26979,-0.862329 2.63489,-0.670701 4.74281,-1.868381 2.15583,-1.19768 3.40141,-2.970246 1.2935,-1.820474 1.2935,-4.263741 0,-2.491175 -1.24559,-3.880483 -1.24559,-1.437216 -3.20978,-2.06001 -1.9642,-0.622794 -4.12002,-0.670701 -1.62885,3.209783 -3.16188,7.569338 -1.53303,4.311648 -2.97024,9.006553 z"
           style="font-weight:bold;-inkscape-font-specification:'Dancing Script Bold'"
           id="path35161" />
        <path
           d="m 236.00077,49.18687 q -2.15582,0 -2.97024,-1.437216 -0.76652,-1.389309 -0.76652,-3.066061 0,-1.533031 0.47907,-3.113968 0.47908,-1.628845 1.2935,-3.018154 0.86233,-1.389309 1.86838,-2.203731 1.05396,-0.86233 2.10792,-0.86233 0.33535,0 0.76651,0.143722 0.47907,0.09581 0.6707,0.33535 -0.57489,0.718608 -1.19768,1.772567 -0.57489,1.053958 -1.10186,2.251638 -0.47908,1.149773 -0.76652,2.347453 -0.28744,1.19768 -0.28744,2.203731 0,0.958144 0.33535,1.580938 0.38326,0.622793 1.29349,0.622793 0.91024,0 2.15583,-1.006051 1.29349,-1.053958 2.44326,-2.39536 -1.53303,-1.389309 -2.20373,-3.018153 -0.6707,-1.676752 -0.6707,-4.024205 0,-1.006051 0.47907,-2.299546 0.52698,-1.293494 1.62885,-2.251638 1.14977,-0.958144 3.06606,-0.958144 2.06001,0 2.87443,1.149773 0.86233,1.149772 0.86233,2.73071 0,1.772566 -0.95814,3.976298 -0.91024,2.203731 -2.20373,4.167926 0.57488,0.287443 1.3414,0.287443 0.7186,0 1.72466,-0.33535 1.00605,-0.335351 1.96419,-1.101866 0.95815,-0.814422 1.53303,-2.155824 l 0.86233,0.622794 q -1.05396,2.443267 -2.82652,3.59304 -1.72466,1.101865 -3.40141,1.101865 -0.6228,0 -1.24559,-0.09581 -0.6228,-0.143722 -1.14977,-0.33535 -1.62885,1.916288 -3.73677,3.353504 -2.10791,1.437216 -4.26374,1.437216 z m 7.56934,-7.377709 q 1.14977,-1.676752 1.9642,-3.59304 0.81442,-1.916288 0.81442,-3.545133 0,-1.101866 -0.33535,-1.580938 -0.33535,-0.526979 -1.00605,-0.526979 -0.91024,0 -1.86838,1.293495 -0.95815,1.293494 -0.95815,3.257689 0,1.006051 0.33535,2.443267 0.38326,1.437216 1.05396,2.251639 z m 7.47352,-13.845181 q -1.3414,0 -2.77861,-0.574886 -1.43722,-0.574887 -2.87444,-1.149773 -1.3893,-0.574887 -2.63489,-0.574887 -0.81442,0 -1.58094,0.143722 -0.71861,0.09581 -1.53303,0.479072 0.57489,-1.437216 1.67675,-2.107917 1.10187,-0.718608 2.6349,-0.718608 1.3414,0 2.73071,0.574887 1.43721,0.574886 2.82652,1.149772 1.38931,0.574887 2.73071,0.574887 1.43722,0 2.82653,-0.479072 -0.6707,1.293494 -1.62885,2.012102 -0.91023,0.670701 -2.39536,0.670701 z"
           style="font-weight:bold;-inkscape-font-specification:'Dancing Script Bold'"
           id="path35163" />
        <path
           d="m 255.69061,51.151065 q -2.73071,0 -4.16793,-1.724659 -1.3893,-1.676752 -1.3893,-4.646999 0,-2.347453 0.81442,-5.557235 0.81442,-3.209782 2.15582,-6.707008 1.3414,-3.545133 2.97025,-6.898637 1.67675,-3.401411 3.40141,-6.132121 1.72466,-2.778618 3.25769,-4.407463 1.53303,-1.628845 2.63489,-1.628845 0.95815,0 1.43722,1.101866 0.47907,1.101866 0.52698,2.203731 0,1.341402 -0.57489,3.25769 -0.57488,1.916288 -1.62884,4.072112 -1.05396,2.155824 -2.44327,4.263741 -1.38931,2.107916 -3.06606,3.832576 -1.62884,1.724659 -3.40141,2.73071 -0.33535,0.622794 -0.86233,2.155824 -0.47907,1.53303 -0.91024,3.497226 -0.38325,1.964195 -0.38325,3.92839 0,1.916288 0.52698,3.25769 0.57488,1.389308 1.96419,1.389308 1.24559,0 2.6828,-1.149772 1.43722,-1.149773 2.34746,-2.778618 -1.77257,-0.958144 -2.68281,-2.682803 -0.91023,-1.724659 -0.91023,-3.640947 0,-2.347453 1.24558,-3.784669 1.2935,-1.437216 3.11397,-1.437216 1.53303,0 2.53908,1.19768 1.00605,1.149773 1.00605,3.59304 0,1.389309 -0.38325,2.970246 -0.33535,1.533031 -1.05396,3.066061 0.23953,0 0.38326,0.04791 0.19162,0 0.47907,0 1.67675,0 2.87443,-0.910237 1.19768,-0.910236 2.0121,-2.155824 0.81442,-1.245587 1.2935,-2.251638 l 0.7186,1.006051 q -1.19768,2.826525 -2.97024,4.311648 -1.72466,1.485123 -4.55119,1.485123 -0.23953,0 -0.52698,0 -0.23953,0 -0.47907,-0.04791 -1.3414,2.155824 -3.3535,3.640947 -1.9642,1.533031 -4.647,1.533031 z m 6.70701,-7.521431 q 0.43116,-0.958144 0.62279,-1.916288 0.23954,-1.006051 0.23954,-2.155824 0,-1.724659 -0.43117,-2.539081 -0.38325,-0.814423 -0.95814,-0.814423 -0.62279,0 -1.10187,0.86233 -0.43116,0.86233 -0.43116,2.06001 0,1.006051 0.43116,2.347452 0.43117,1.341402 1.62885,2.155824 z M 257.12783,31.89237 q 1.19768,-1.101865 2.29954,-2.539081 1.14977,-1.485123 2.10792,-3.066061 1.00605,-1.628845 1.72466,-3.161875 0.76651,-1.580938 1.24559,-2.826525 0.47907,-1.293494 0.57488,-2.06001 0,-0.09581 0,-0.143721 0,-0.09581 0,-0.143722 -0.43116,0.143722 -1.43721,1.389309 -0.95815,1.245587 -2.20374,3.25769 -1.19768,1.964195 -2.34745,4.407462 -1.14977,2.39536 -1.96419,4.886534 z"
           style="font-weight:bold;-inkscape-font-specification:'Dancing Script Bold'"
           id="path35165" />
        <path
           d="m 286.39906,48.611983 q -1.86838,0 -2.87443,-0.958144 -0.95815,-0.910237 -0.95815,-2.347453 0,-0.958144 0.33535,-2.012102 0.33535,-1.101866 0.67071,-2.203731 0.33535,-1.101866 0.33535,-2.107917 0,-1.053958 -0.52698,-1.437216 -0.47908,-0.431165 -1.14978,-0.431165 -1.43721,0 -2.97024,1.19768 -1.48513,1.149773 -2.92234,2.922339 -1.38931,1.772567 -2.6349,3.688855 -1.24559,1.916288 -2.15582,3.449318 -0.91024,0 -1.72466,-0.33535 -0.81442,-0.287443 -1.38931,-1.053959 0.0479,-0.239536 0.57489,-1.437216 0.47907,-1.245587 1.10186,-2.922339 0.6228,-1.724659 1.10187,-3.59304 0.47907,-1.868381 0.47907,-3.401411 0.33535,-0.383258 1.00605,-0.766515 0.71861,-0.383258 1.48512,-0.383258 1.67676,0 1.67676,1.437216 0,0.574887 -0.23954,1.724659 -0.19163,1.101866 -0.57489,2.539082 1.24559,-1.676752 2.73071,-3.161875 1.48513,-1.485123 3.06606,-2.39536 1.62885,-0.958144 3.25769,-0.958144 2.06001,0 3.01816,1.389309 1.00605,1.389308 1.00605,3.06606 0,1.437216 -0.47907,2.682804 -0.47907,1.245587 -0.95815,2.347452 -0.43116,1.101866 -0.43116,2.155824 0,0.766516 0.33535,1.101866 0.38326,0.287443 0.81442,0.287443 1.14977,0 2.39536,-1.101865 1.24559,-1.101866 2.34745,-2.778618 1.14978,-1.724659 2.01211,-3.449318 l 0.81442,0.6707 q -1.00605,2.347453 -2.29955,4.311648 -1.24558,1.916288 -2.82652,3.113968 -1.53303,1.149773 -3.44932,1.149773 z"
           style="font-weight:bold;-inkscape-font-specification:'Dancing Script Bold'"
           id="path35167" />
        <path
           d="m 296.74699,49.091055 q -2.10792,0 -3.16188,-1.245587 -1.05395,-1.245587 -1.05395,-3.018154 0,-1.101865 0.38325,-2.778617 0.38326,-1.676752 1.05396,-3.497226 0.71861,-1.868381 1.62885,-3.497225 0.91023,-1.628845 1.96419,-2.634896 1.05396,-1.053959 2.10792,-1.053959 0.57489,0 1.00605,0.335351 0.43116,0.33535 0.43116,1.053958 0,0.622794 -0.76651,1.868381 -0.71861,1.245587 -1.72466,2.874432 -0.95814,1.628845 -1.72466,3.401411 -0.71861,1.724659 -0.71861,3.305597 0,1.53303 0.52698,2.060009 0.57489,0.479072 1.62885,0.479072 1.62884,0 3.54513,-1.628844 1.91629,-1.628845 3.9763,-5.700957 l 0.71861,0.766515 q -1.67676,4.215834 -4.26375,6.563286 -2.58698,2.347453 -5.55723,2.347453 z m 5.65305,-21.606147 q -0.91024,0 -1.67675,-0.431165 -0.71861,-0.479072 -0.71861,-1.437216 0,-1.149773 1.24559,-1.964195 1.24558,-0.814422 2.58699,-0.814422 0.86232,0 1.43721,0.383257 0.62279,0.383258 0.62279,1.389309 0,1.006051 -1.10186,1.964195 -1.10187,0.910237 -2.39536,0.910237 z"
           style="font-weight:bold;-inkscape-font-specification:'Dancing Script Bold'"
           id="path35169" />
        <path
           d="m 319.79033,49.474313 q -1.48513,0 -2.58699,-0.958144 -1.10187,-0.958144 -1.77257,-2.39536 -0.6707,-1.437216 -1.00605,-2.922339 -0.33535,-1.533031 -0.33535,-2.634896 0.6707,-0.143722 1.67675,-0.431165 1.00605,-0.287443 2.06001,-0.766515 1.05396,-0.52698 1.72466,-1.245588 0.71861,-0.766515 0.71861,-1.820473 0,-0.86233 -0.57489,-1.389309 -0.52698,-0.526979 -1.53303,-0.526979 -1.3414,0 -2.53908,0.910237 -1.19768,0.862329 -2.25164,2.299545 -1.00605,1.437216 -1.86838,3.113968 -0.81442,1.676752 -1.48512,3.25769 -0.6228,1.580937 -1.05396,2.73071 -0.52698,1.437216 -1.00605,1.916288 -0.47907,0.526979 -1.38931,0.526979 -0.33535,0 -0.81442,-0.191628 -0.43117,-0.191629 -0.76652,-0.958144 -0.28744,-0.766516 -0.28744,-2.443268 0,-2.922339 0.81442,-6.419564 0.81442,-3.497226 2.15583,-7.090266 1.3893,-3.640947 3.01815,-6.946544 1.62884,-3.305597 3.3056,-5.940493 1.67675,-2.634896 3.11396,-4.167926 1.48513,-1.533031 2.44327,-1.533031 0.81442,0 1.3414,1.006052 0.57489,0.958144 0.57489,2.491174 0,1.628845 -0.71861,3.640947 -0.71861,1.964195 -2.06001,4.024205 -1.29349,2.012102 -3.11397,3.832576 -1.82047,1.820474 -4.0242,3.113968 -1.3414,3.113968 -2.06001,6.180029 -0.71861,3.018153 -0.91024,5.365606 0.86233,-1.964195 1.9642,-4.024205 1.10186,-2.060009 2.44326,-3.832576 1.34141,-1.820473 2.87444,-2.922339 1.58093,-1.101865 3.3535,-1.101865 1.91629,0 3.3535,1.341401 1.43722,1.341402 1.43722,3.353504 0,1.437216 -0.76651,2.491175 -0.76652,1.053958 -1.91629,1.772566 -1.10187,0.670701 -2.25164,1.006051 -1.14977,0.335351 -1.9642,0.383258 0.14373,0.622793 0.38326,1.580937 0.28744,0.958144 0.71861,1.868381 0.43116,0.910237 1.10186,1.533031 0.67071,0.622793 1.58094,0.622793 1.19768,0 2.44327,-1.101865 1.29349,-1.101866 2.49117,-2.92234 1.24559,-1.820473 2.20374,-4.024204 l 0.6707,0.814422 q -0.81443,2.39536 -2.25164,4.599091 -1.38931,2.203731 -3.11397,3.545133 -1.72466,1.389309 -3.54513,1.389309 z M 312.9396,28.29933 q 1.29349,-1.149772 2.73071,-2.826524 1.43721,-1.72466 2.44326,-3.640948 1.05396,-1.964195 1.10187,-3.736761 0,-0.04791 0,-0.04791 0,-0.04791 0,-0.09582 -0.47907,0.191629 -1.53303,1.676752 -1.00605,1.437216 -2.25164,3.688855 -1.24559,2.251638 -2.49117,4.982348 z"
           style="font-weight:bold;-inkscape-font-specification:'Dancing Script Bold'"
           id="path35171" />
        <path
           d="m 329.89875,49.18687 q -2.15582,0 -2.97024,-1.437216 -0.76652,-1.389309 -0.76652,-3.066061 0,-1.533031 0.47907,-3.113968 0.47908,-1.628845 1.2935,-3.018154 0.86233,-1.389309 1.86838,-2.203731 1.05396,-0.86233 2.10792,-0.86233 0.33535,0 0.76651,0.143722 0.47907,0.09581 0.6707,0.33535 -0.57489,0.718608 -1.19768,1.772567 -0.57489,1.053958 -1.10186,2.251638 -0.47908,1.149773 -0.76652,2.347453 -0.28744,1.19768 -0.28744,2.203731 0,0.958144 0.33535,1.580938 0.38326,0.622793 1.29349,0.622793 0.91024,0 2.15583,-1.006051 1.29349,-1.053958 2.44326,-2.39536 -1.53303,-1.389309 -2.20373,-3.018153 -0.6707,-1.676752 -0.6707,-4.024205 0,-1.006051 0.47907,-2.299546 0.52698,-1.293494 1.62885,-2.251638 1.14977,-0.958144 3.06606,-0.958144 2.06001,0 2.87443,1.149773 0.86233,1.149772 0.86233,2.73071 0,1.772566 -0.95814,3.976298 -0.91024,2.203731 -2.20373,4.167926 0.57488,0.287443 1.3414,0.287443 0.7186,0 1.72466,-0.33535 1.00605,-0.335351 1.96419,-1.101866 0.95814,-0.814422 1.53303,-2.155824 l 0.86233,0.622794 q -1.05396,2.443267 -2.82652,3.59304 -1.72466,1.101865 -3.40141,1.101865 -0.6228,0 -1.24559,-0.09581 -0.6228,-0.143722 -1.14977,-0.33535 -1.62885,1.916288 -3.73677,3.353504 -2.10791,1.437216 -4.26374,1.437216 z m 7.56934,-7.377709 q 1.14977,-1.676752 1.9642,-3.59304 0.81442,-1.916288 0.81442,-3.545133 0,-1.101866 -0.33535,-1.580938 -0.33535,-0.526979 -1.00605,-0.526979 -0.91024,0 -1.86838,1.293495 -0.95815,1.293494 -0.95815,3.257689 0,1.006051 0.33535,2.443267 0.38326,1.437216 1.05396,2.251639 z"
           style="font-weight:bold;-inkscape-font-specification:'Dancing Script Bold'"
           id="path35173" />
        <path
           d="m 348.10347,49.52222 q -1.77257,0 -2.49118,-1.628845 -0.6707,-1.580937 -0.6707,-4.120019 0,-0.526979 0.0479,-1.868381 0.0479,-1.389309 0.14372,-3.832576 0.0479,-1.437216 0.28744,-1.964195 0.28745,-0.526979 1.53303,-0.526979 1.14978,0 1.34141,0.479072 0.23953,0.431165 0.23953,1.820473 0,1.437216 -0.14372,3.066061 -0.0958,1.628845 -0.0958,3.161875 0,1.485124 0.14372,2.203732 0.14372,0.6707 0.71861,0.6707 0.86233,0 1.86838,-0.910236 1.00605,-0.958144 2.0121,-2.39536 1.05396,-1.485124 1.96419,-3.161876 0.95815,-1.724659 1.67676,-3.305596 0.0958,-3.25769 0.76651,-4.359556 0.6707,-1.101865 1.72466,-1.101865 1.19768,0 1.62885,0.766515 0.43116,0.766515 0.43116,1.341402 0,0.718608 -0.38326,1.293494 -0.38326,0.574886 -0.76651,1.580938 -0.38326,1.006051 -0.38326,3.06606 0,0.670701 0.0958,1.485124 0.14373,0.766515 0.57489,1.341401 0.47907,0.526979 1.38931,0.526979 0.95814,0 1.82047,-0.766515 0.91024,-0.814422 1.91629,-2.778617 l 0.52698,0.431164 q -1.10187,2.634896 -2.49117,3.688855 -1.34141,1.053958 -2.58699,1.053958 -1.58094,0 -2.58699,-1.245587 -0.95815,-1.293494 -1.48513,-3.209782 -1.14977,2.155824 -2.63489,4.26374 -1.43722,2.107917 -3.01815,3.497226 -1.58094,1.437216 -3.11397,1.437216 z"
           style="font-weight:bold;-inkscape-font-specification:'Dancing Script Bold'"
           id="path35175" />
        <path
           d="m 124.90431,111.70577 q -0.47907,0 -1.24559,-0.14372 -0.76651,-0.14373 -1.58093,-0.57489 -0.76652,-0.38326 -1.2935,-1.24559 -0.52698,-0.86233 -0.52698,-2.29954 0,-1.19768 0.47908,-3.11397 0.47907,-1.9642 1.62884,-5.700959 0.86233,-2.826525 1.67675,-5.557235 0.86233,-2.778618 1.38931,-5.748864 0.57489,-2.970246 0.57489,-6.32375 0,-1.964196 -0.23954,-3.305597 -0.23953,-1.341402 -0.91024,-2.012103 -0.62279,-0.718608 -1.77256,-0.718608 -1.14977,0 -2.0121,0.622794 -0.86233,0.622794 -1.43722,1.676752 -0.57489,1.006051 -0.86233,2.251638 -0.28744,1.245588 -0.28744,2.491175 0,2.107917 0.71861,3.497225 -2.34746,0 -3.40142,-1.101865 -1.05395,-1.101866 -1.05395,-2.730711 0,-1.437216 0.7186,-2.970246 0.71861,-1.53303 1.9642,-2.778618 1.29349,-1.293494 2.97025,-2.060009 1.67675,-0.814423 3.59303,-0.814423 3.25769,0 4.93445,2.39536 1.72466,2.39536 1.72466,6.802823 0,3.305597 -0.91024,6.898637 -0.86233,3.545132 -2.20373,7.760966 -0.47907,1.53303 -1.14978,3.401408 -0.62279,1.82048 -1.14977,3.78467 -0.47907,1.91629 -0.47907,3.83258 0,0.91023 0.19163,1.24559 0.23953,0.38325 0.86233,0.38325 1.29349,0 2.73071,-1.10186 1.48512,-1.10187 2.97025,-2.97025 1.48512,-1.86838 2.82652,-4.16793 1.38931,-2.299541 2.53908,-4.694901 1.14977,-2.443267 1.91629,-4.599091 0.76651,-2.203732 1.00605,-3.832576 1.82047,0 2.82653,1.006051 1.00605,1.006051 1.00605,1.916288 0,0.479072 -0.43117,1.628845 -0.38326,1.149772 -1.3414,3.401411 -0.76651,1.820473 -1.58094,3.880483 -0.81442,2.0121 -1.38931,4.0242 -0.52698,1.9642 -0.52698,3.68886 0,0.95814 0.23954,1.38931 0.28744,0.43116 1.00605,0.43116 1.3414,0 3.06606,-1.3414 1.77257,-1.29349 3.64095,-3.54513 1.86838,-2.29955 3.64095,-5.126072 1.77256,-2.874432 3.20978,-5.940493 1.43722,-3.066061 2.25164,-6.036307 0.86233,-2.970246 0.86233,-5.413514 0,-2.634896 -0.95815,-3.736761 -0.91023,-1.101866 -2.29954,-1.580938 0.86233,-1.389309 1.82047,-2.012102 1.00605,-0.670701 1.77257,-0.670701 1.10186,0 2.25164,1.437216 1.19768,1.389309 1.19768,4.407462 0,2.539082 -1.00605,5.844679 -0.95815,3.305597 -2.68281,6.898637 -1.67675,3.545132 -3.88048,6.946544 -2.15583,3.3535 -4.647,6.08421 -2.44327,2.73071 -4.93444,4.31165 -2.49118,1.62885 -4.74281,1.62885 -1.24559,0 -2.25164,-0.52698 -0.95815,-0.47907 -1.53303,-1.43722 -0.52698,-0.91024 -0.52698,-2.15582 0,-0.57489 0.14372,-1.19768 0.14372,-0.6228 0.33535,-1.24559 -2.34745,2.97025 -4.74281,4.74281 -2.34746,1.82048 -4.69491,1.82048 z"
           style="font-weight:bold;-inkscape-font-specification:'Dancing Script Bold'"
           id="path35177" />
        <path
           d="m 163.23,109.64576 q -3.06607,0 -4.74282,-1.67675 -1.62884,-1.62885 -1.62884,-4.12002 0,-2.10792 1.05396,-4.455374 1.10186,-2.39536 2.92234,-4.455369 1.82047,-2.107917 4.0242,-3.401411 2.20373,-1.293495 4.40746,-1.293495 1.24559,0 2.34746,0.670701 1.14977,0.622794 1.14977,2.539082 0,1.820473 -1.05396,3.401411 -1.05396,1.580937 -2.82653,2.826525 -1.77256,1.24559 -3.92839,2.06001 -2.10791,0.76651 -4.26374,1.00605 -0.0479,0.19163 -0.0958,0.43117 0,0.19162 0,0.6707 0,0.23953 0.0479,0.86233 0.0958,0.57488 0.43116,1.24558 0.33535,0.6707 1.10187,1.14978 0.76651,0.47907 2.10791,0.47907 2.01211,0 4.02421,-1.10187 2.06001,-1.14977 3.83257,-3.01815 1.82048,-1.86838 3.01816,-4.167928 l 0.95814,0.766518 q -1.29349,2.87443 -3.3535,5.03025 -2.0121,2.15583 -4.50328,3.35351 -2.44327,1.19768 -5.03025,1.19768 z m -2.01211,-8.67121 q 1.24559,-0.14372 2.77862,-0.86233 1.53303,-0.718604 2.92234,-1.820469 1.43722,-1.101866 2.34745,-2.39536 0.91024,-1.341402 0.91024,-2.682803 0,-0.52698 -0.19163,-0.718608 -0.19163,-0.191629 -0.62279,-0.191629 -1.10187,0 -2.29955,0.814422 -1.19768,0.766515 -2.34745,2.06001 -1.14977,1.245587 -2.06001,2.778617 -0.91024,1.533031 -1.43722,3.01815 z"
           style="font-weight:bold;-inkscape-font-specification:'Dancing Script Bold'"
           id="path35179" />
        <path
           d="m 179.03935,111.03507 q -2.73071,0 -4.16793,-1.72466 -1.3893,-1.67676 -1.3893,-4.647 0,-2.34745 0.81442,-5.557237 0.81442,-3.209782 2.15582,-6.707008 1.3414,-3.545133 2.97025,-6.898637 1.67675,-3.401411 3.40141,-6.132121 1.72466,-2.778618 3.25769,-4.407463 1.53303,-1.628844 2.63489,-1.628844 0.95815,0 1.43722,1.101865 0.47907,1.101866 0.52698,2.203731 0,1.341402 -0.57489,3.25769 -0.57488,1.916288 -1.62884,4.072112 -1.05396,2.155824 -2.44327,4.263741 -1.38931,2.107917 -3.06606,3.832576 -1.62884,1.724659 -3.40141,2.73071 -0.33535,0.622794 -0.86233,2.155824 -0.47907,1.533031 -0.91024,3.497221 -0.38325,1.9642 -0.38325,3.9284 0,1.91628 0.52697,3.25768 0.57489,1.38931 1.9642,1.38931 1.24559,0 2.6828,-1.14977 1.43722,-1.14977 2.34746,-2.77862 -1.77257,-0.95814 -2.68281,-2.6828 -0.91023,-1.72466 -0.91023,-3.640947 0,-2.347453 1.24558,-3.784669 1.2935,-1.437216 3.11397,-1.437216 1.53303,0 2.53908,1.19768 1.00605,1.149773 1.00605,3.59304 0,1.389309 -0.38325,2.970242 -0.33535,1.53303 -1.05396,3.06607 0.23953,0 0.38326,0.0479 0.19162,0 0.47907,0 1.67675,0 2.87443,-0.91023 1.19768,-0.91024 2.0121,-2.15583 0.81442,-1.24559 1.2935,-2.251637 l 0.7186,1.006047 q -1.19768,2.82653 -2.97024,4.31165 -1.72466,1.48513 -4.55119,1.48513 -0.23953,0 -0.52698,0 -0.23953,0 -0.47907,-0.0479 -1.3414,2.15582 -3.3535,3.64095 -1.9642,1.53303 -4.647,1.53303 z m 6.70701,-7.52143 q 0.43116,-0.95815 0.62279,-1.91629 0.23954,-1.00605 0.23954,-2.155826 0,-1.72466 -0.43117,-2.539082 -0.38325,-0.814422 -0.95814,-0.814422 -0.62279,0 -1.10187,0.862329 -0.43116,0.86233 -0.43116,2.06001 0,1.006051 0.43116,2.347451 0.43117,1.3414 1.62885,2.15583 z m -5.26979,-11.737268 q 1.19768,-1.101866 2.29954,-2.539082 1.14977,-1.485123 2.10792,-3.066061 1.00605,-1.628845 1.72466,-3.161875 0.76651,-1.580938 1.24558,-2.826525 0.47908,-1.293494 0.57489,-2.060009 0,-0.09582 0,-0.143722 0,-0.09581 0,-0.143722 -0.43116,0.143722 -1.43721,1.389309 -0.95815,1.245587 -2.20374,3.25769 -1.19768,1.964195 -2.34745,4.407462 -1.14977,2.39536 -1.96419,4.886535 z"
           style="font-weight:bold;-inkscape-font-specification:'Dancing Script Bold'"
           id="path35181" />
        <path
           d="m 215.20914,111.70577 q -1.67676,0 -3.20979,-0.47908 -1.48512,-0.43116 -2.58699,-1.91628 0.14373,-1.14978 0.67071,-3.35351 0.57488,-2.20373 1.3893,-4.98235 0.81443,-2.826521 1.72466,-5.796767 0.91024,-2.970247 1.77257,-5.65305 0.91024,-2.73071 1.58094,-4.742813 0.71861,-2.060009 1.05396,-2.970246 0.14372,-0.383258 0.47907,-1.149773 0.33535,-0.766515 0.86233,-1.580937 0.52698,-0.814423 1.19768,-1.341402 0.71861,-0.574886 1.53303,-0.574886 0.81442,0 1.82047,0.6707 -1.48512,3.353504 -3.01815,7.473524 -1.48513,4.072112 -2.87443,8.431667 -1.34141,4.311648 -2.49118,8.431663 -1.10186,4.07212 -1.82047,7.47353 0.38326,0.14372 1.05396,0.19163 0.7186,0.0958 1.3414,0.0958 3.11397,0 5.94049,-1.53303 2.82653,-1.48512 5.17398,-3.9763 2.39536,-2.53908 4.16792,-5.653047 1.77257,-3.161875 2.73072,-6.467472 0.95814,-3.305597 0.95814,-6.323751 0,-3.880483 -1.3414,-6.275843 -1.2935,-2.443267 -3.59304,-3.545133 -2.29955,-1.149772 -5.26979,-1.149772 -3.11397,0 -5.60515,1.149772 -2.49117,1.101866 -3.92839,3.066061 -1.38931,1.916288 -1.38931,4.407463 0,0.526979 0.0958,1.149772 0.0958,0.574887 0.33535,1.149773 -2.06001,0 -2.97025,-0.862329 -0.86233,-0.910237 -0.86233,-2.203732 0,-1.676752 1.19768,-3.401411 1.24559,-1.724659 3.40141,-3.161875 2.20374,-1.485123 5.07817,-2.347453 2.87443,-0.910237 6.22793,-0.910237 4.69491,0 7.52143,1.820474 2.82653,1.772566 4.07212,4.838627 1.29349,3.018154 1.29349,6.754915 0,4.12002 -1.3414,7.904688 -1.2935,3.736762 -3.64095,6.89864 -2.29954,3.16187 -5.36561,5.50933 -3.01815,2.34745 -6.46747,3.64094 -3.40141,1.2935 -6.89863,1.2935 z"
           style="font-weight:bold;-inkscape-font-specification:'Dancing Script Bold'"
           id="path35183" />
        <path
           d="m 244.09706,109.64576 q -3.06606,0 -4.74281,-1.67675 -1.62885,-1.62885 -1.62885,-4.12002 0,-2.10792 1.05396,-4.455374 1.10187,-2.39536 2.92234,-4.455369 1.82047,-2.107917 4.02421,-3.401411 2.20373,-1.293495 4.40746,-1.293495 1.24559,0 2.34745,0.670701 1.14977,0.622794 1.14977,2.539082 0,1.820473 -1.05396,3.401411 -1.05395,1.580937 -2.82652,2.826525 -1.77257,1.24559 -3.92839,2.06001 -2.10792,0.76651 -4.26374,1.00605 -0.0479,0.19163 -0.0958,0.43117 0,0.19162 0,0.6707 0,0.23953 0.0479,0.86233 0.0958,0.57488 0.43117,1.24558 0.33535,0.6707 1.10186,1.14978 0.76652,0.47907 2.10792,0.47907 2.0121,0 4.0242,-1.10187 2.06001,-1.14977 3.83258,-3.01815 1.82047,-1.86838 3.01815,-4.167928 l 0.95815,0.766518 q -1.2935,2.87443 -3.35351,5.03025 -2.0121,2.15583 -4.50327,3.35351 -2.44327,1.19768 -5.03026,1.19768 z m -2.0121,-8.67121 q 1.24559,-0.14372 2.77862,-0.86233 1.53303,-0.718604 2.92234,-1.820469 1.43721,-1.101866 2.34745,-2.39536 0.91023,-1.341402 0.91023,-2.682803 0,-0.52698 -0.19162,-0.718608 -0.19163,-0.191629 -0.6228,-0.191629 -1.10186,0 -2.29954,0.814422 -1.19768,0.766515 -2.34746,2.06001 -1.14977,1.245587 -2.06001,2.778617 -0.91023,1.533031 -1.43721,3.01815 z"
           style="font-weight:bold;-inkscape-font-specification:'Dancing Script Bold'"
           id="path35185" />
        <path
           d="m 258.42129,109.40622 q -1.77256,0 -2.49117,-1.62884 -0.6707,-1.58094 -0.6707,-4.12002 0,-0.52698 0.0479,-1.86838 0.0479,-1.38931 0.14373,-3.83258 0.0479,-1.437216 0.28744,-1.964195 0.28744,-0.526979 1.53303,-0.526979 1.14977,0 1.3414,0.479072 0.23954,0.431165 0.23954,1.820474 0,1.437216 -0.14372,3.066058 -0.0958,1.62885 -0.0958,3.16188 0,1.48512 0.14372,2.20373 0.14372,0.6707 0.71861,0.6707 0.86233,0 1.86838,-0.91024 1.00605,-0.95814 2.0121,-2.39536 1.05396,-1.48512 1.9642,-3.16187 0.95814,-1.724662 1.67675,-3.305599 0.0958,-3.25769 0.76652,-4.359555 0.6707,-1.101866 1.72466,-1.101866 1.19768,0 1.62884,0.766515 0.43117,0.766515 0.43117,1.341402 0,0.718608 -0.38326,1.293494 -0.38326,0.574887 -0.76652,1.580938 -0.38326,1.006051 -0.38326,3.066061 0,0.6707 0.0958,1.48512 0.14372,0.76652 0.57489,1.3414 0.47907,0.52698 1.3893,0.52698 0.95815,0 1.82048,-0.76651 0.91023,-0.81442 1.91629,-2.778619 l 0.52698,0.431165 q -1.10187,2.634894 -2.49118,3.688854 -1.3414,1.05396 -2.58699,1.05396 -1.58094,0 -2.58699,-1.24559 -0.95814,-1.29349 -1.48512,-3.20978 -1.14977,2.15582 -2.6349,4.26374 -1.43721,2.10792 -3.01815,3.49723 -1.58094,1.43721 -3.11397,1.43721 z"
           style="font-weight:bold;-inkscape-font-specification:'Dancing Script Bold'"
           id="path35187" />
        <path
           d="m 280.07535,109.64576 q -3.06606,0 -4.74282,-1.67675 -1.62884,-1.62885 -1.62884,-4.12002 0,-2.10792 1.05396,-4.455374 1.10186,-2.39536 2.92234,-4.455369 1.82047,-2.107917 4.0242,-3.401411 2.20373,-1.293495 4.40746,-1.293495 1.24559,0 2.34746,0.670701 1.14977,0.622794 1.14977,2.539082 0,1.820473 -1.05396,3.401411 -1.05396,1.580937 -2.82652,2.826525 -1.77257,1.24559 -3.92839,2.06001 -2.10792,0.76651 -4.26374,1.00605 -0.0479,0.19163 -0.0958,0.43117 0,0.19162 0,0.6707 0,0.23953 0.0479,0.86233 0.0958,0.57488 0.43116,1.24558 0.33535,0.6707 1.10187,1.14978 0.76651,0.47907 2.10792,0.47907 2.0121,0 4.0242,-1.10187 2.06001,-1.14977 3.83258,-3.01815 1.82047,-1.86838 3.01815,-4.167928 l 0.95814,0.766518 q -1.29349,2.87443 -3.3535,5.03025 -2.0121,2.15583 -4.50328,3.35351 -2.44326,1.19768 -5.03025,1.19768 z m -2.01211,-8.67121 q 1.24559,-0.14372 2.77862,-0.86233 1.53303,-0.718604 2.92234,-1.820469 1.43722,-1.101866 2.34745,-2.39536 0.91024,-1.341402 0.91024,-2.682803 0,-0.52698 -0.19163,-0.718608 -0.19163,-0.191629 -0.62279,-0.191629 -1.10187,0 -2.29955,0.814422 -1.19768,0.766515 -2.34745,2.06001 -1.14977,1.245587 -2.06001,2.778617 -0.91024,1.533031 -1.43722,3.01815 z"
           style="font-weight:bold;-inkscape-font-specification:'Dancing Script Bold'"
           id="path35189" />
        <path
           d="m 294.97447,108.97506 q -2.25164,0 -3.16188,-1.48513 -0.86233,-1.53303 -0.86233,-3.59304 0,-2.34745 0.86233,-5.509325 0.86233,-3.161875 2.25164,-6.611193 1.43721,-3.497226 3.11397,-6.802823 1.72466,-3.353504 3.44932,-6.036307 1.72465,-2.682803 3.16187,-4.263741 1.48512,-1.628845 2.39536,-1.628845 0.62279,0 1.05396,0.670701 0.43116,0.622794 0.6707,1.533031 0.28744,0.862329 0.28744,1.628844 0,1.293495 -0.6707,3.401412 -0.62279,2.060009 -1.82047,4.551184 -1.14977,2.491174 -2.77862,5.12607 -1.58094,2.586989 -3.54513,4.934442 -1.91629,2.347452 -4.12002,4.072112 -0.19163,1.197678 -0.38326,2.395358 -0.14372,1.14977 -0.14372,2.10792 0,1.72466 0.57489,2.53908 0.57488,0.76652 1.48512,0.76652 1.19768,0 2.44327,-1.10187 1.29349,-1.14977 2.44326,-2.87443 1.19768,-1.77257 2.06001,-3.64095 l 1.14978,0.622794 q -2.06001,4.263736 -4.5991,6.754916 -2.53908,2.44327 -5.31769,2.44327 z m 1.14977,-12.982855 q 1.62884,-1.772566 3.06606,-3.832576 1.48512,-2.107917 2.6828,-4.263741 1.24559,-2.155824 2.15583,-4.167926 0.91023,-2.012102 1.38931,-3.59304 0.52697,-1.628845 0.57488,-2.586989 0,-0.04791 0,-0.04791 0,-0.04791 0,-0.09581 -0.38326,0 -1.24559,1.101865 -0.81442,1.053959 -1.96419,2.922339 -1.14977,1.868381 -2.39536,4.263741 -1.19768,2.39536 -2.34745,5.078163 -1.10187,2.634896 -1.91629,5.221885 z"
           style="font-weight:bold;-inkscape-font-specification:'Dancing Script Bold'"
           id="path35191" />
        <path
           d="m 305.75353,109.07087 q -2.15582,0 -2.97024,-1.43722 -0.76652,-1.3893 -0.76652,-3.06606 0,-1.53303 0.47908,-3.11396 0.47907,-1.628849 1.29349,-3.018158 0.86233,-1.389308 1.86838,-2.203731 1.05396,-0.862329 2.10792,-0.862329 0.33535,0 0.76651,0.143721 0.47907,0.09582 0.6707,0.335351 -0.57488,0.718608 -1.19768,1.772566 -0.57488,1.053958 -1.10186,2.251638 -0.47907,1.149772 -0.76652,2.347452 -0.28744,1.19768 -0.28744,2.20373 0,0.95815 0.33535,1.58094 0.38326,0.62279 1.29349,0.62279 0.91024,0 2.15583,-1.00605 1.29349,-1.05396 2.44327,-2.39536 -1.53304,-1.38931 -2.20374,-3.01815 -0.6707,-1.676753 -0.6707,-4.024206 0,-1.006051 0.47908,-2.299546 0.52697,-1.293494 1.62884,-2.251638 1.14977,-0.958144 3.06606,-0.958144 2.06001,0 2.87443,1.149773 0.86233,1.149773 0.86233,2.73071 0,1.772567 -0.95814,3.976298 -0.91024,2.203733 -2.20373,4.167923 0.57488,0.28745 1.3414,0.28745 0.71861,0 1.72466,-0.33535 1.00605,-0.33535 1.96419,-1.10187 0.95815,-0.81442 1.53303,-2.155824 l 0.86233,0.622794 q -1.05396,2.44327 -2.82652,3.59304 -1.72466,1.10187 -3.40141,1.10187 -0.6228,0 -1.24559,-0.0958 -0.62279,-0.14372 -1.14977,-0.33535 -1.62885,1.91629 -3.73676,3.3535 -2.10792,1.43722 -4.26375,1.43722 z m 7.56934,-7.37771 q 1.14978,-1.67675 1.9642,-3.593038 0.81442,-1.916288 0.81442,-3.545133 0,-1.101865 -0.33535,-1.580937 -0.33535,-0.52698 -1.00605,-0.52698 -0.91024,0 -1.86838,1.293495 -0.95815,1.293494 -0.95815,3.257689 0,1.006052 0.33535,2.443268 0.38326,1.437216 1.05396,2.251636 z"
           style="font-weight:bold;-inkscape-font-specification:'Dancing Script Bold'"
           id="path35193" />
        <path
           d="m 317.73031,120.95186 q -0.38325,0 -0.81442,-0.23954 -0.43116,-0.19163 -0.71861,-0.47907 -0.33535,-0.28744 -0.38325,-0.47907 1.19768,-3.49723 2.06,-6.08422 0.81443,-2.53908 1.38931,-4.83863 0.57489,-2.25163 1.05396,-4.6949 0.43117,-2.49118 0.86233,-5.65305 0.47907,-3.209783 1.05396,-7.71306 0.0958,-0.574886 0.23954,-0.814422 0.14372,-0.287443 0.91023,-0.287443 1.48513,0 2.15583,0.814422 0.6707,0.766515 0.6707,1.724659 0,0.479072 -0.19163,1.676752 -0.14372,1.19768 -0.47907,2.826525 0.91023,-1.389309 2.06001,-2.634896 1.19768,-1.245587 2.63489,-2.012102 1.43722,-0.814423 3.11397,-0.814423 2.34745,0 3.88048,1.580938 1.53303,1.580938 1.53303,4.167926 0,1.868381 -0.86233,3.976294 -0.81442,2.06001 -2.34745,3.92839 -1.53303,1.82048 -3.68885,2.97025 -2.15583,1.19768 -4.74282,1.19768 -1.53303,0 -2.44326,-0.38326 -0.91024,-0.38325 -0.91024,-0.86233 0,-0.33535 0.33535,-0.38325 0.38326,-0.0958 0.81442,-0.0958 2.25164,-0.0479 4.07212,-0.95814 1.86838,-0.91024 3.20978,-2.34746 1.3414,-1.48512 2.06001,-3.16187 0.71861,-1.676752 0.71861,-3.305597 0,-1.437216 -0.67071,-2.491175 -0.62279,-1.053958 -2.0121,-1.053958 -1.19768,0 -2.44327,0.766515 -1.19768,0.766515 -2.25163,1.964195 -1.05396,1.149773 -1.86838,2.443268 -0.81443,1.245582 -1.24559,2.203732 -0.91024,3.16187 -1.67675,6.27584 -0.71861,3.16188 -1.38931,5.84468 -0.6707,2.6828 -1.3414,4.55118 -0.71861,1.86839 -1.53303,2.53909 -0.38326,0.33535 -0.81443,0.33535 z"
           style="font-weight:bold;-inkscape-font-specification:'Dancing Script Bold'"
           id="path35195" />
        <path
           d="m 365.25418,109.02296 q -1.86838,0 -2.77862,-1.10186 -0.91023,-1.10187 -0.91023,-2.6349 0,-1.10186 0.33535,-2.20373 0.33535,-1.10186 0.6707,-2.15582 0.33535,-1.101869 0.33535,-1.964198 0,-0.814423 -0.33535,-1.101866 -0.28745,-0.33535 -0.76652,-0.33535 -1.10186,0 -2.58699,1.676752 -1.43721,1.676752 -3.59304,4.886532 -0.76651,1.14977 -1.43721,2.44327 -0.6707,1.24559 -1.19768,2.10792 -0.43117,0 -1.14978,-0.14373 -0.6707,-0.14372 -1.19768,-0.43116 -0.52697,-0.23954 -0.52697,-0.6707 0,-0.43117 0.47907,-1.67675 0.47907,-1.24559 1.10186,-2.87444 0.6228,-1.67675 1.10187,-3.257685 0.47907,-1.628845 0.47907,-2.73071 0,-0.670701 -0.23954,-1.053959 -0.23953,-0.383257 -0.76651,-0.383257 -1.00605,0 -2.44327,1.19768 -1.38931,1.19768 -2.97024,3.161875 -1.53303,1.916286 -2.92234,4.311646 -1.3414,2.34745 -2.20373,4.74281 -0.52698,0 -1.2935,-0.23953 -0.76651,-0.19163 -1.3414,-0.52698 -0.57489,-0.28744 -0.57489,-0.52698 0,-0.0479 0.33535,-1.3414 0.33535,-1.3414 0.81443,-3.3056 0.47907,-1.96419 1.00605,-4.024203 0.52698,-2.060009 0.91023,-3.59304 0.14373,-0.526979 1.05396,-0.910237 0.91024,-0.431164 1.58094,-0.431164 0.6707,0 1.14977,0.431164 0.47907,0.431165 0.47907,1.149773 0,0.479072 -0.19162,1.389309 -0.19163,0.910237 -0.47908,2.06001 1.00606,-1.341402 2.10792,-2.634896 1.14977,-1.341402 2.34745,-2.39536 1.24559,-1.053959 2.44327,-1.676752 1.24559,-0.622794 2.44327,-0.622794 1.77256,0 2.39536,1.293494 0.62279,1.245588 0.62279,2.730711 0,0.622793 -0.0958,1.245587 -0.0958,0.574886 -0.28745,1.19768 -0.14372,0.574886 -0.43116,1.389309 0.91024,-1.341402 1.96419,-2.443267 1.10187,-1.149773 2.34746,-1.820474 1.24558,-0.670701 2.63489,-0.670701 1.86838,0 2.58699,1.149773 0.71861,1.101866 0.71861,2.443267 0,1.245587 -0.43116,2.634901 -0.38326,1.3414 -0.81443,2.58698 -0.38325,1.19768 -0.38325,2.06001 0,0.47908 0.23953,0.91024 0.23954,0.38326 0.95815,0.38326 1.29349,0 2.49117,-1.19768 1.19768,-1.19768 2.20373,-2.92234 1.05396,-1.77257 1.77257,-3.353505 l 0.81442,1.006055 q -0.76652,1.96419 -2.0121,4.0242 -1.19768,2.0121 -2.82653,3.3535 -1.62884,1.38931 -3.73676,1.38931 z"
           style="font-weight:bold;-inkscape-font-specification:'Dancing Script Bold'"
           id="path35197" />
        <path
           d="m 377.37468,109.64576 q -3.06606,0 -4.74281,-1.67675 -1.62885,-1.62885 -1.62885,-4.12002 0,-2.10792 1.05396,-4.455374 1.10187,-2.39536 2.92234,-4.455369 1.82047,-2.107917 4.0242,-3.401411 2.20374,-1.293495 4.40747,-1.293495 1.24558,0 2.34745,0.670701 1.14977,0.622794 1.14977,2.539082 0,1.820473 -1.05396,3.401411 -1.05395,1.580937 -2.82652,2.826525 -1.77257,1.24559 -3.92839,2.06001 -2.10792,0.76651 -4.26374,1.00605 -0.0479,0.19163 -0.0958,0.43117 0,0.19162 0,0.6707 0,0.23953 0.0479,0.86233 0.0958,0.57488 0.43117,1.24558 0.33535,0.6707 1.10186,1.14978 0.76652,0.47907 2.10792,0.47907 2.0121,0 4.0242,-1.10187 2.06001,-1.14977 3.83258,-3.01815 1.82047,-1.86838 3.01815,-4.167928 l 0.95815,0.766518 q -1.2935,2.87443 -3.35351,5.03025 -2.0121,2.15583 -4.50327,3.35351 -2.44327,1.19768 -5.03026,1.19768 z m -2.0121,-8.67121 q 1.24558,-0.14372 2.77861,-0.86233 1.53303,-0.718604 2.92234,-1.820469 1.43722,-1.101866 2.34746,-2.39536 0.91023,-1.341402 0.91023,-2.682803 0,-0.52698 -0.19163,-0.718608 -0.19162,-0.191629 -0.62279,-0.191629 -1.10186,0 -2.29954,0.814422 -1.19768,0.766515 -2.34746,2.06001 -1.14977,1.245587 -2.06001,2.778617 -0.91023,1.533031 -1.43721,3.01815 z"
           style="font-weight:bold;-inkscape-font-specification:'Dancing Script Bold'"
           id="path35199" />
        <path
           d="m 404.2985,108.49598 q -1.86838,0 -2.87443,-0.95814 -0.95814,-0.91024 -0.95814,-2.34745 0,-0.95815 0.33535,-2.0121 0.33535,-1.10187 0.6707,-2.20374 0.33535,-1.101862 0.33535,-2.107913 0,-1.053958 -0.52698,-1.437216 -0.47907,-0.431165 -1.14977,-0.431165 -1.43722,0 -2.97025,1.19768 -1.48512,1.149773 -2.92234,2.922344 -1.38931,1.77256 -2.63489,3.68885 -1.24559,1.91629 -2.15583,3.44932 -0.91023,0 -1.72466,-0.33535 -0.81442,-0.28745 -1.38931,-1.05396 0.0479,-0.23954 0.57489,-1.43722 0.47907,-1.24558 1.10187,-2.92234 0.62279,-1.72465 1.10186,-3.593036 0.47907,-1.86838 0.47907,-3.401411 0.33535,-0.383257 1.00606,-0.766515 0.7186,-0.383258 1.48512,-0.383258 1.67675,0 1.67675,1.437216 0,0.574887 -0.23954,1.72466 -0.19162,1.101865 -0.57488,2.539084 1.24559,-1.676755 2.73071,-3.161878 1.48512,-1.485123 3.06606,-2.39536 1.62884,-0.958144 3.25769,-0.958144 2.06001,0 3.01815,1.389309 1.00605,1.389309 1.00605,3.066061 0,1.437216 -0.47907,2.682802 -0.47907,1.24559 -0.95814,2.34745 -0.43117,1.10187 -0.43117,2.15583 0,0.76651 0.33535,1.10186 0.38326,0.28745 0.81443,0.28745 1.14977,0 2.39536,-1.10187 1.24558,-1.10186 2.34745,-2.77862 1.14977,-1.72466 2.0121,-3.449315 l 0.81442,0.670701 q -1.00605,2.347454 -2.29954,4.311644 -1.24559,1.91629 -2.82653,3.11397 -1.53303,1.14977 -3.44932,1.14977 z"
           style="font-weight:bold;-inkscape-font-specification:'Dancing Script Bold'"
           id="path35201" />
        <path
           d="m 415.17343,109.74157 q -2.10792,0 -3.40141,-1.24559 -1.2935,-1.24558 -1.2935,-3.78466 0,-1.9642 0.71861,-4.886539 0.76652,-2.922339 1.91629,-6.036307 -0.33535,-0.09581 -0.81442,-0.143722 -0.43117,-0.09581 -0.86233,-0.287443 v -1.485123 q 0.76651,0.09581 1.24558,0.143722 0.52698,0.04791 1.05396,0.09581 1.00605,-2.539082 2.15583,-4.886534 1.19768,-2.39536 2.34745,-4.263741 1.19768,-1.868381 2.25164,-2.922339 1.05396,-1.101866 1.86838,-1.101866 0.47907,0 0.91024,0.383258 0.43116,0.33535 0.43116,1.006051 0,0.958144 -1.00605,2.73071 -0.95815,1.772567 -2.39536,4.167927 -1.43722,2.347452 -2.77862,5.030256 0.38326,0 0.76652,0 0.38325,0 0.7186,0 2.10792,0 3.78467,-0.04791 1.72466,-0.09581 3.49723,-0.287443 v 1.580938 q -2.6349,0.239536 -4.83863,0.383257 -2.20373,0.143722 -4.21583,0.191629 -0.14372,0 -0.28745,0 -0.14372,0 -0.28744,0 -1.00605,2.347453 -1.77256,4.838627 -0.71861,2.443266 -0.71861,4.790716 0,1.9642 0.62279,2.77862 0.62279,0.81442 1.9642,0.81442 2.39536,0 4.88653,-2.15582 2.53908,-2.20373 4.40746,-5.940492 l 0.6707,0.479072 q -1.24558,2.82652 -3.11396,5.12607 -1.82048,2.29955 -3.9763,3.59304 -2.15583,1.3414 -4.45537,1.3414 z"
           style="font-weight:bold;-inkscape-font-specification:'Dancing Script Bold'"
           id="path35203" />
      </g>
    </g>
  </g>
</svg>
